<svg id="mermaid-1627669541345" width="100%" xmlns="http://www.w3.org/2000/svg" xmlns:xlink="http://www.w3.org/1999/xlink" height="643" style="max-width: 273.203125px;" viewBox="-20 -20 273.203125 643"><style>#mermaid-1627669541345{font-family:"trebuchet ms",verdana,arial,sans-serif;font-size:16px;fill:#333;}#mermaid-1627669541345 .error-icon{fill:#552222;}#mermaid-1627669541345 .error-text{fill:#552222;stroke:#552222;}#mermaid-1627669541345 .edge-thickness-normal{stroke-width:2px;}#mermaid-1627669541345 .edge-thickness-thick{stroke-width:3.5px;}#mermaid-1627669541345 .edge-pattern-solid{stroke-dasharray:0;}#mermaid-1627669541345 .edge-pattern-dashed{stroke-dasharray:3;}#mermaid-1627669541345 .edge-pattern-dotted{stroke-dasharray:2;}#mermaid-1627669541345 .marker{fill:#333333;stroke:#333333;}#mermaid-1627669541345 .marker.cross{stroke:#333333;}#mermaid-1627669541345 svg{font-family:"trebuchet ms",verdana,arial,sans-serif;font-size:16px;}#mermaid-1627669541345 g.classGroup text{fill:#9370DB;fill:#131300;stroke:none;font-family:"trebuchet ms",verdana,arial,sans-serif;font-size:10px;}#mermaid-1627669541345 g.classGroup text .title{font-weight:bolder;}#mermaid-1627669541345 .classTitle{font-weight:bolder;}#mermaid-1627669541345 .node rect,#mermaid-1627669541345 .node circle,#mermaid-1627669541345 .node ellipse,#mermaid-1627669541345 .node polygon,#mermaid-1627669541345 .node path{fill:#ECECFF;stroke:#9370DB;stroke-width:1px;}#mermaid-1627669541345 .divider{stroke:#9370DB;stroke:1;}#mermaid-1627669541345 g.clickable{cursor:pointer;}#mermaid-1627669541345 g.classGroup rect{fill:#ECECFF;stroke:#9370DB;}#mermaid-1627669541345 g.classGroup line{stroke:#9370DB;stroke-width:1;}#mermaid-1627669541345 .classLabel .box{stroke:none;stroke-width:0;fill:#ECECFF;opacity:0.5;}#mermaid-1627669541345 .classLabel .label{fill:#9370DB;font-size:10px;}#mermaid-1627669541345 .relation{stroke:#333333;stroke-width:1;fill:none;}#mermaid-1627669541345 .dashed-line{stroke-dasharray:3;}#mermaid-1627669541345 #compositionStart,#mermaid-1627669541345 .composition{fill:#333333 !important;stroke:#333333 !important;stroke-width:1;}#mermaid-1627669541345 #compositionEnd,#mermaid-1627669541345 .composition{fill:#333333 !important;stroke:#333333 !important;stroke-width:1;}#mermaid-1627669541345 #dependencyStart,#mermaid-1627669541345 .dependency{fill:#333333 !important;stroke:#333333 !important;stroke-width:1;}#mermaid-1627669541345 #dependencyStart,#mermaid-1627669541345 .dependency{fill:#333333 !important;stroke:#333333 !important;stroke-width:1;}#mermaid-1627669541345 #extensionStart,#mermaid-1627669541345 .extension{fill:#333333 !important;stroke:#333333 !important;stroke-width:1;}#mermaid-1627669541345 #extensionEnd,#mermaid-1627669541345 .extension{fill:#333333 !important;stroke:#333333 !important;stroke-width:1;}#mermaid-1627669541345 #aggregationStart,#mermaid-1627669541345 .aggregation{fill:#ECECFF !important;stroke:#333333 !important;stroke-width:1;}#mermaid-1627669541345 #aggregationEnd,#mermaid-1627669541345 .aggregation{fill:#ECECFF !important;stroke:#333333 !important;stroke-width:1;}#mermaid-1627669541345 .edgeTerminals{font-size:11px;}#mermaid-1627669541345:root{--mermaid-font-family:"trebuchet ms",verdana,arial,sans-serif;}</style><g></g><defs><marker id="extensionStart" class="extension" refX="0" refY="7" markerWidth="190" markerHeight="240" orient="auto"><path d="M 1,7 L18,13 V 1 Z"></path></marker></defs><defs><marker id="extensionEnd" refX="19" refY="7" markerWidth="20" markerHeight="28" orient="auto"><path d="M 1,1 V 13 L18,7 Z"></path></marker></defs><defs><marker id="compositionStart" class="extension" refX="0" refY="7" markerWidth="190" markerHeight="240" orient="auto"><path d="M 18,7 L9,13 L1,7 L9,1 Z"></path></marker></defs><defs><marker id="compositionEnd" refX="19" refY="7" markerWidth="20" markerHeight="28" orient="auto"><path d="M 18,7 L9,13 L1,7 L9,1 Z"></path></marker></defs><defs><marker id="aggregationStart" class="extension" refX="0" refY="7" markerWidth="190" markerHeight="240" orient="auto"><path d="M 18,7 L9,13 L1,7 L9,1 Z"></path></marker></defs><defs><marker id="aggregationEnd" refX="19" refY="7" markerWidth="20" markerHeight="28" orient="auto"><path d="M 18,7 L9,13 L1,7 L9,1 Z"></path></marker></defs><defs><marker id="dependencyStart" class="extension" refX="0" refY="7" markerWidth="190" markerHeight="240" orient="auto"><path d="M 5,7 L9,13 L1,7 L9,1 Z"></path></marker></defs><defs><marker id="dependencyEnd" refX="19" refY="7" markerWidth="20" markerHeight="28" orient="auto"><path d="M 18,7 L9,13 L14,7 L9,1 Z"></path></marker></defs><g id="classid-Marketplace-0" class="classGroup" transform="translate(16.15234375,80 )"><rect x="0" y="0" width="195.40625" height="168" class=" "></rect><text y="15" x="0"><tspan class="title" x="68.96875">Marketplace</tspan></text><line x1="0" y1="21" y2="21" x2="195.40625"></line><text x="5" y="31" fill="white" class="classText"><tspan x="5">+mapping trades</tspan><tspan x="5" dy="10">+mapping addressToTrades</tspan><tspan x="5" dy="10">+mapping nftToActiveTrade</tspan><tspan x="5" dy="10">-Counter tradeCounter</tspan></text><line x1="0" y1="67" y2="67" x2="195.40625"></line><text x="5" y="82" fill="white" class="classText"><tspan x="5">+getTrade(uint256)</tspan><tspan x="5" dy="10">+uint25 getTradesOfAddress</tspan><tspan x="5" dy="10">+uint256getTradeOfNft(uint256)</tspan><tspan x="5" dy="10">+address getStorage</tspan><tspan x="5" dy="10">+openTrade(uint256,uint256)</tspan><tspan x="5" dy="10">+executeTrade(uint256,uint256)</tspan><tspan x="5" dy="10">+cancelTrade(uint256,uint256)</tspan><tspan x="5" dy="10">#_pay(address,payable address,uint256)</tspan><tspan x="5" dy="10">#_checkPayment(uint256,uint256)</tspan></text></g><g id="classid-ETHMarketplace-1" class="classGroup" transform="translate(0,0 )"><rect x="0" y="0" width="86.109375" height="30" class=" "></rect><text y="15" x="0"><tspan class="title" x="5">ETHMarketplace</tspan></text><line x1="0" y1="21" y2="21" x2="86.109375"></line><text x="5" y="31" fill="white" class="classText"></text><line x1="0" y1="26" y2="26" x2="86.109375"></line><text x="5" y="41" fill="white" class="classText"></text></g><g id="classid-ERC20Marketplace-2" class="classGroup" transform="translate(136.109375,0 )"><rect x="0" y="0" width="97.09375" height="30" class=" "></rect><text y="15" x="0"><tspan class="title" x="5">ERC20Marketplace</tspan></text><line x1="0" y1="21" y2="21" x2="97.09375"></line><text x="5" y="31" fill="white" class="classText"></text><line x1="0" y1="26" y2="26" x2="97.09375"></line><text x="5" y="41" fill="white" class="classText"></text></g><g id="classid-NFTLabStore-3" class="classGroup" transform="translate(9.66015625,395 )"><rect x="0" y="0" width="208.390625" height="208" class=" "></rect><text y="15" x="0"><tspan class="title" x="74.0390625">NFTLabStore</tspan></text><line x1="0" y1="21" y2="21" x2="208.390625"></line><text x="5" y="31" fill="white" class="classText"><tspan x="5">- _nfts</tspan><tspan x="5" dy="10">uint256[] images</tspan><tspan x="5" dy="10">uint256[] music</tspan><tspan x="5" dy="10">uint256[] video</tspan></text><line x1="0" y1="67" y2="67" x2="208.390625"></line><text x="5" y="82" fill="white" class="classText"><tspan x="5">+mint(address, NFTLab)</tspan><tspan x="5" dy="10">+safeTransferFrom(from, to, tokenId)</tspan><tspan x="5" dy="10">+getHistory(uint256) : NFTTransaction[]</tspan><tspan x="5" dy="10">+getTokenId(string) : uint256</tspan><tspan x="5" dy="10">+getNFTByHash(string) : NFTLab</tspan><tspan x="5" dy="10">+getNFTById(uint256) : NFTLab</tspan><tspan x="5" dy="10">+getImageAt(uint256) : uint256</tspan><tspan x="5" dy="10">+getMusicAt(uint256) : uint256</tspan><tspan x="5" dy="10">+getVideoAt(uint256) : uint256</tspan><tspan x="5" dy="10">+image_totalSupply() : uint256</tspan><tspan x="5" dy="10">+music_totalSupply() : uint256</tspan><tspan x="5" dy="10">+video_totalSupply() : uint256</tspan><tspan x="5" dy="10">#_recordHistory(address, address, uint256)</tspan></text></g><g id="classid-NFTLabStoreMarketplaceVariant-4" class="classGroup" transform="translate(5.86328125,298 )"><rect x="0" y="0" width="215.984375" height="47" class=" "></rect><text y="15" x="0"><tspan class="title" x="32.7109375">NFTLabStoreMarketplaceVariant</tspan></text><line x1="0" y1="21" y2="21" x2="215.984375"></line><text x="5" y="31" fill="white" class="classText"></text><line x1="0" y1="26" y2="26" x2="215.984375"></line><text x="5" y="41" fill="white" class="classText"><tspan x="5">+_marketTransfer(address, address, uint256)</tspan></text></g><path d="M43.0546875,30L43.0546875,34.166666666666664C43.0546875,38.333333333333336,43.0546875,46.666666666666664,45.76113938264526,55C48.467591265290515,63.333333333333336,53.88049503058104,71.66666666666667,56.58694691322629,75.83333333333333L59.29339879587156,80" id="edge0" class="relation" marker-end="url(#extensionEnd)"></path><path d="M184.65625,30L184.65625,34.166666666666664C184.65625,38.333333333333336,184.65625,46.666666666666664,181.94979811735473,55C179.2433462347095,63.333333333333336,173.83044246941895,71.66666666666667,171.12399058677371,75.83333333333333L168.41753870412845,80" id="edge1" class="relation" marker-end="url(#extensionEnd)"></path><path d="M113.85546875,345L113.85546875,349.1666666666667C113.85546875,353.3333333333333,113.85546875,361.6666666666667,113.85546875,370C113.85546875,378.3333333333333,113.85546875,386.6666666666667,113.85546875,390.8333333333333L113.85546875,395" id="edge2" class="relation" marker-end="url(#extensionEnd)"></path><path d="M113.85546875,248L113.85546875,252.16666666666666C113.85546875,256.3333333333333,113.85546875,264.6666666666667,113.85546875,273C113.85546875,281.3333333333333,113.85546875,289.6666666666667,113.85546875,293.8333333333333L113.85546875,298" id="edge3" class="relation" marker-start="url(#aggregationStart)"></path></svg>